<svg xmlns="http://www.w3.org/2000/svg" viewBox="0 0 32 32">
  <rect x="2"  y="4" width="2"  height="18" fill="#111"/>
  <rect x="6"  y="4" width="1"  height="18" fill="#111"/>
  <rect x="9"  y="4" width="3"  height="18" fill="#111"/>
  <rect x="14" y="4" width="1"  height="18" fill="#111"/>
  <rect x="17" y="4" width="2"  height="18" fill="#111"/>
  <rect x="21" y="4" width="1"  height="18" fill="#111"/>
  <rect x="24" y="4" width="2"  height="18" fill="#111"/>
  <rect x="28" y="4" width="2"  height="18" fill="#111"/>
  <line x1="1" y1="13" x2="31" y2="13" stroke="#ef4444" stroke-width="1.5"/>
  <rect x="2"  y="24" width="4" height="2" rx="0.5" fill="#111" opacity="0.5"/>
  <rect x="8"  y="24" width="4" height="2" rx="0.5" fill="#111" opacity="0.5"/>
  <rect x="14" y="24" width="4" height="2" rx="0.5" fill="#111" opacity="0.5"/>
  <rect x="20" y="24" width="4" height="2" rx="0.5" fill="#111" opacity="0.5"/>
  <rect x="26" y="24" width="4" height="2" rx="0.5" fill="#111" opacity="0.5"/>
</svg>
