<svg xmlns="http://www.w3.org/2000/svg" viewBox="0 0 512 512">
  <!-- Fondo verde -->
  <rect width="512" height="512" rx="96" fill="#22c55e"/>
  <!-- Barras del código de barras (zona segura: 20% margen) -->
  <!-- Barras finas y gruesas para simular un código de barras -->
  <rect x="102" y="140" width="14" height="200" rx="3" fill="white"/>
  <rect x="124" y="140" width="8"  height="200" rx="2" fill="white"/>
  <rect x="140" y="140" width="20" height="200" rx="3" fill="white"/>
  <rect x="168" y="140" width="10" height="200" rx="2" fill="white"/>
  <rect x="186" y="140" width="16" height="200" rx="3" fill="white"/>
  <rect x="210" y="140" width="8"  height="200" rx="2" fill="white"/>
  <rect x="226" y="140" width="22" height="200" rx="3" fill="white"/>
  <rect x="256" y="140" width="12" height="200" rx="2" fill="white"/>
  <rect x="276" y="140" width="18" height="200" rx="3" fill="white"/>
  <rect x="302" y="140" width="8"  height="200" rx="2" fill="white"/>
  <rect x="318" y="140" width="14" height="200" rx="3" fill="white"/>
  <rect x="340" y="140" width="24" height="200" rx="3" fill="white"/>
  <rect x="372" y="140" width="10" height="200" rx="2" fill="white"/>
  <rect x="390" y="140" width="16" height="200" rx="3" fill="white"/>
  <!-- Texto EAN debajo de las barras -->
  <text x="256" y="388" text-anchor="middle" font-family="monospace" font-size="40" font-weight="bold" fill="white" letter-spacing="6">EAN</text>
</svg>
